<svg xmlns="http://www.w3.org/2000/svg" viewBox="0 0 1730 630" role="img" aria-label="Organigramme de firstlawyer-incorporated">
<rect width="100%" height="100%" fill="#111e2d"/>
<path d="M375 478 V502 H375 V527" fill="none" stroke="#77a4bf" stroke-width="2"/>
<path d="M865 103 V128 H130 V152" fill="none" stroke="#77a4bf" stroke-width="2"/>
<path d="M130 228 V252 H130 V277" fill="none" stroke="#77a4bf" stroke-width="2"/>
<path d="M865 103 V128 H375 V152" fill="none" stroke="#77a4bf" stroke-width="2"/>
<path d="M865 353 V378 H865 V402" fill="none" stroke="#77a4bf" stroke-width="2"/>
<path d="M865 103 V128 H620 V152" fill="none" stroke="#77a4bf" stroke-width="2"/>
<path d="M620 478 V502 H620 V527" fill="none" stroke="#77a4bf" stroke-width="2"/>
<path d="M375 353 V378 H375 V402" fill="none" stroke="#77a4bf" stroke-width="2"/>
<path d="M1110 353 V378 H1110 V402" fill="none" stroke="#77a4bf" stroke-width="2"/>
<path d="M865 103 V128 H865 V152" fill="none" stroke="#77a4bf" stroke-width="2"/>
<path d="M865 103 V128 H1110 V152" fill="none" stroke="#77a4bf" stroke-width="2"/>
<path d="M865 103 V128 H1355 V152" fill="none" stroke="#77a4bf" stroke-width="2"/>
<path d="M130 353 V378 H130 V402" fill="none" stroke="#77a4bf" stroke-width="2"/>
<path d="M865 228 V252 H865 V277" fill="none" stroke="#77a4bf" stroke-width="2"/>
<path d="M620 228 V252 H620 V277" fill="none" stroke="#77a4bf" stroke-width="2"/>
<path d="M865 103 V128 H1600 V152" fill="none" stroke="#77a4bf" stroke-width="2"/>
<path d="M865 478 V502 H865 V527" fill="none" stroke="#77a4bf" stroke-width="2"/>
<path d="M620 353 V378 H620 V402" fill="none" stroke="#77a4bf" stroke-width="2"/>
<path d="M1110 478 V502 H1110 V527" fill="none" stroke="#77a4bf" stroke-width="2"/>
<path d="M130 478 V502 H130 V527" fill="none" stroke="#77a4bf" stroke-width="2"/>
<path d="M1110 228 V252 H1110 V277" fill="none" stroke="#77a4bf" stroke-width="2"/>
<path d="M375 228 V252 H375 V277" fill="none" stroke="#77a4bf" stroke-width="2"/>
<rect x="21" y="526" width="218" height="78" rx="9" fill="#234057" stroke="#6992a9"/>
<text x="130" y="556" text-anchor="middle" fill="#f4f2eb" font-family="DejaVu Sans, sans-serif" font-size="15">Zivko VORONOV</text>
<text x="130" y="594" text-anchor="middle" fill="#a9c9dc" font-family="DejaVu Sans, sans-serif" font-size="12">cabinet Bratchov</text>
<rect x="21" y="401" width="218" height="78" rx="9" fill="#234057" stroke="#6992a9"/>
<text x="130" y="431" text-anchor="middle" fill="#f4f2eb" font-family="DejaVu Sans, sans-serif" font-size="15">Gloria KIRKLAND</text>
<text x="130" y="469" text-anchor="middle" fill="#a9c9dc" font-family="DejaVu Sans, sans-serif" font-size="12">Cabinet Knight</text>
<rect x="21" y="276" width="218" height="78" rx="9" fill="#234057" stroke="#6992a9"/>
<text x="130" y="306" text-anchor="middle" fill="#f4f2eb" font-family="DejaVu Sans, sans-serif" font-size="15">Adalyn MILLS-EVANS</text>
<text x="130" y="344" text-anchor="middle" fill="#a9c9dc" font-family="DejaVu Sans, sans-serif" font-size="12">cabinet Bloom</text>
<rect x="21" y="151" width="218" height="78" rx="9" fill="#234057" stroke="#6992a9"/>
<text x="130" y="181" text-anchor="middle" fill="#f4f2eb" font-family="DejaVu Sans, sans-serif" font-size="15">Lisa J. BLOOM</text>
<text x="130" y="219" text-anchor="middle" fill="#a9c9dc" font-family="DejaVu Sans, sans-serif" font-size="12">Directrice</text>
<rect x="266" y="526" width="218" height="78" rx="9" fill="#234057" stroke="#6992a9"/>
<text x="375" y="556" text-anchor="middle" fill="#f4f2eb" font-family="DejaVu Sans, sans-serif" font-size="15">Zoran KOZIC</text>
<text x="375" y="594" text-anchor="middle" fill="#a9c9dc" font-family="DejaVu Sans, sans-serif" font-size="12">cabinet Mediaforce</text>
<rect x="266" y="401" width="218" height="78" rx="9" fill="#234057" stroke="#6992a9"/>
<text x="375" y="431" text-anchor="middle" fill="#f4f2eb" font-family="DejaVu Sans, sans-serif" font-size="15">Muna RADAFI</text>
<text x="375" y="469" text-anchor="middle" fill="#a9c9dc" font-family="DejaVu Sans, sans-serif" font-size="12">Cabinet Cloudlife</text>
<rect x="266" y="276" width="218" height="78" rx="9" fill="#234057" stroke="#6992a9"/>
<text x="375" y="306" text-anchor="middle" fill="#f4f2eb" font-family="DejaVu Sans, sans-serif" font-size="15">Demona PRINCE</text>
<text x="375" y="344" text-anchor="middle" fill="#a9c9dc" font-family="DejaVu Sans, sans-serif" font-size="12">cabinet Faith</text>
<rect x="266" y="151" width="218" height="78" rx="9" fill="#234057" stroke="#6992a9"/>
<text x="375" y="181" text-anchor="middle" fill="#f4f2eb" font-family="DejaVu Sans, sans-serif" font-size="15">Adam ABELLAN</text>
<text x="375" y="219" text-anchor="middle" fill="#a9c9dc" font-family="DejaVu Sans, sans-serif" font-size="12">Directeur</text>
<rect x="511" y="526" width="218" height="78" rx="9" fill="#234057" stroke="#6992a9"/>
<text x="620" y="556" text-anchor="middle" fill="#f4f2eb" font-family="DejaVu Sans, sans-serif" font-size="15">Jagdish RANPIKU</text>
<text x="620" y="594" text-anchor="middle" fill="#a9c9dc" font-family="DejaVu Sans, sans-serif" font-size="12">cabinet Land</text>
<rect x="511" y="401" width="218" height="78" rx="9" fill="#234057" stroke="#6992a9"/>
<text x="620" y="431" text-anchor="middle" fill="#f4f2eb" font-family="DejaVu Sans, sans-serif" font-size="15">Donatella FERNA</text>
<text x="620" y="469" text-anchor="middle" fill="#a9c9dc" font-family="DejaVu Sans, sans-serif" font-size="12">cabinet ferna</text>
<rect x="511" y="276" width="218" height="78" rx="9" fill="#234057" stroke="#6992a9"/>
<text x="620" y="306" text-anchor="middle" fill="#f4f2eb" font-family="DejaVu Sans, sans-serif" font-size="15">Stephan IRVING</text>
<text x="620" y="344" text-anchor="middle" fill="#a9c9dc" font-family="DejaVu Sans, sans-serif" font-size="12">cabnet Shoner</text>
<rect x="511" y="151" width="218" height="78" rx="9" fill="#234057" stroke="#6992a9"/>
<text x="620" y="181" text-anchor="middle" fill="#f4f2eb" font-family="DejaVu Sans, sans-serif" font-size="15">Bryan STHONER</text>
<text x="620" y="219" text-anchor="middle" fill="#a9c9dc" font-family="DejaVu Sans, sans-serif" font-size="12">Directeur</text>
<rect x="756" y="526" width="218" height="78" rx="9" fill="#234057" stroke="#6992a9"/>
<text x="865" y="556" text-anchor="middle" fill="#f4f2eb" font-family="DejaVu Sans, sans-serif" font-size="15">Dong-Yun RYONG</text>
<text x="865" y="594" text-anchor="middle" fill="#a9c9dc" font-family="DejaVu Sans, sans-serif" font-size="12">cabinet IA defend</text>
<rect x="756" y="401" width="218" height="78" rx="9" fill="#234057" stroke="#6992a9"/>
<text x="865" y="431" text-anchor="middle" fill="#f4f2eb" font-family="DejaVu Sans, sans-serif" font-size="15">Yoon-Ji OH</text>
<text x="865" y="469" text-anchor="middle" fill="#a9c9dc" font-family="DejaVu Sans, sans-serif" font-size="12">cabinet cybercrew</text>
<rect x="756" y="276" width="218" height="78" rx="9" fill="#234057" stroke="#6992a9"/>
<text x="865" y="306" text-anchor="middle" fill="#f4f2eb" font-family="DejaVu Sans, sans-serif" font-size="15">Ricardo ESPINAR</text>
<text x="865" y="344" text-anchor="middle" fill="#a9c9dc" font-family="DejaVu Sans, sans-serif" font-size="12">Cabinet Loa</text>
<rect x="756" y="151" width="218" height="78" rx="9" fill="#234057" stroke="#6992a9"/>
<text x="865" y="181" text-anchor="middle" fill="#f4f2eb" font-family="DejaVu Sans, sans-serif" font-size="15">Ximena del POZO</text>
<text x="865" y="219" text-anchor="middle" fill="#a9c9dc" font-family="DejaVu Sans, sans-serif" font-size="12">Directeur</text>
<rect x="1001" y="526" width="218" height="78" rx="9" fill="#234057" stroke="#6992a9"/>
<text x="1110" y="556" text-anchor="middle" fill="#f4f2eb" font-family="DejaVu Sans, sans-serif" font-size="15">Kazimir VLABLOVC</text>
<text x="1110" y="594" text-anchor="middle" fill="#a9c9dc" font-family="DejaVu Sans, sans-serif" font-size="12">new life II</text>
<rect x="1001" y="401" width="218" height="78" rx="9" fill="#234057" stroke="#6992a9"/>
<text x="1110" y="431" text-anchor="middle" fill="#f4f2eb" font-family="DejaVu Sans, sans-serif" font-size="15">Miley PENNBROOK</text>
<text x="1110" y="469" text-anchor="middle" fill="#a9c9dc" font-family="DejaVu Sans, sans-serif" font-size="12">fix contact</text>
<rect x="1001" y="276" width="218" height="78" rx="9" fill="#234057" stroke="#6992a9"/>
<text x="1110" y="306" text-anchor="middle" fill="#f4f2eb" font-family="DejaVu Sans, sans-serif" font-size="15">Rick WEIS</text>
<text x="1110" y="344" text-anchor="middle" fill="#a9c9dc" font-family="DejaVu Sans, sans-serif" font-size="12">manage You</text>
<rect x="1001" y="151" width="218" height="78" rx="9" fill="#234057" stroke="#6992a9"/>
<text x="1110" y="181" text-anchor="middle" fill="#f4f2eb" font-family="DejaVu Sans, sans-serif" font-size="15">David DELIOR</text>
<text x="1110" y="219" text-anchor="middle" fill="#a9c9dc" font-family="DejaVu Sans, sans-serif" font-size="12">Directeur</text>
<rect x="1246" y="151" width="218" height="78" rx="9" fill="#234057" stroke="#6992a9"/>
<text x="1355" y="181" text-anchor="middle" fill="#f4f2eb" font-family="DejaVu Sans, sans-serif" font-size="15">Garrett TERRELL</text>
<text x="1355" y="219" text-anchor="middle" fill="#a9c9dc" font-family="DejaVu Sans, sans-serif" font-size="12">Vice-Président</text>
<rect x="1491" y="151" width="218" height="78" rx="9" fill="#234057" stroke="#6992a9"/>
<text x="1600" y="181" text-anchor="middle" fill="#f4f2eb" font-family="DejaVu Sans, sans-serif" font-size="15">Belyandra QUEEN</text>
<text x="1600" y="219" text-anchor="middle" fill="#a9c9dc" font-family="DejaVu Sans, sans-serif" font-size="12">Vice-présidente</text>
<rect x="756" y="26" width="218" height="78" rx="9" fill="#234057" stroke="#6992a9"/>
<text x="865" y="56" text-anchor="middle" fill="#f4f2eb" font-family="DejaVu Sans, sans-serif" font-size="15">Zacharia KAUFMANN</text>
<text x="865" y="94" text-anchor="middle" fill="#a9c9dc" font-family="DejaVu Sans, sans-serif" font-size="12">Président</text>
</svg>